HIERARCHY
ROOT Junyuan_V1:Solving:Hips
{
	OFFSET 0.000000 0.000000 0.000000
	CHANNELS 6 Xposition Yposition Zposition Xrotation Yrotation Zrotation
	JOINT Junyuan_V1:Solving:Spine
	{
		OFFSET 0.000000 -8.943189 2.778120
		CHANNELS 6 Xposition Yposition Zposition Xrotation Yrotation Zrotation
		JOINT Junyuan_V1:Solving:Spine1
		{
			OFFSET 0.000000 -9.944814 1.753542
			CHANNELS 6 Xposition Yposition Zposition Xrotation Yrotation Zrotation
			JOINT Junyuan_V1:Solving:Spine2
			{
				OFFSET 0.000000 -10.059801 0.880121
				CHANNELS 6 Xposition Yposition Zposition Xrotation Yrotation Zrotation
				JOINT Junyuan_V1:Solving:Spine3
				{
					OFFSET 0.000000 -10.098228 0.000000
					CHANNELS 6 Xposition Yposition Zposition Xrotation Yrotation Zrotation
					JOINT Junyuan_V1:Solving:Neck
					{
						OFFSET 0.000000 -12.983437 -1.298342
						CHANNELS 6 Xposition Yposition Zposition Xrotation Yrotation Zrotation
						JOINT Junyuan_V1:Solving:Neck1
						{
							OFFSET 0.000000 -8.085114 -0.707354
							CHANNELS 6 Xposition Yposition Zposition Xrotation Yrotation Zrotation
							JOINT Junyuan_V1:Solving:Head
							{
								OFFSET 0.000000 -7.992695 -1.409326
								CHANNELS 6 Xposition Yposition Zposition Xrotation Yrotation Zrotation
								JOINT Junyuan_V1:Solving:HeadEnd
								{
									OFFSET 0.000000 -9.728081 0.000002
									CHANNELS 6 Xposition Yposition Zposition Xrotation Yrotation Zrotation
									End Site
									{
										OFFSET 0.000000 -9.728081 0.000002
									}
								}
							}
						}
					}
					JOINT Junyuan_V1:Solving:RightShoulder
					{
						OFFSET 0.000000 -9.273884 -6.154356
						CHANNELS 6 Xposition Yposition Zposition Xrotation Yrotation Zrotation
						JOINT Junyuan_V1:Solving:RightArm
						{
							OFFSET -19.110832 -0.000008 0.000000
							CHANNELS 6 Xposition Yposition Zposition Xrotation Yrotation Zrotation
							JOINT Junyuan_V1:Solving:RightForeArm
							{
								OFFSET -27.916382 -0.000008 0.000000
								CHANNELS 6 Xposition Yposition Zposition Xrotation Yrotation Zrotation
								JOINT Junyuan_V1:Solving:RightHand
								{
									OFFSET -21.757072 -0.000008 0.000000
									CHANNELS 6 Xposition Yposition Zposition Xrotation Yrotation Zrotation
									JOINT Junyuan_V1:Solving:RightHandThumb1
									{
										OFFSET -3.656471 2.766285 -2.718907
										CHANNELS 6 Xposition Yposition Zposition Xrotation Yrotation Zrotation
										End Site
										{
											OFFSET -5.307442 0.000000 -5.356520
										}
									}
									JOINT Junyuan_V1:Solving:RightHandMiddle1
									{
										OFFSET -9.750572 -0.000004 0.062504
										CHANNELS 6 Xposition Yposition Zposition Xrotation Yrotation Zrotation
										End Site
										{
											OFFSET -7.540642 -0.000004 0.000000
										}
									}
								}
							}
						}
					}
					JOINT Junyuan_V1:Solving:LeftShoulder
					{
						OFFSET 0.000000 -9.273884 -6.154356
						CHANNELS 6 Xposition Yposition Zposition Xrotation Yrotation Zrotation
						JOINT Junyuan_V1:Solving:LeftArm
						{
							OFFSET 19.110832 -0.000008 0.000000
							CHANNELS 6 Xposition Yposition Zposition Xrotation Yrotation Zrotation
							JOINT Junyuan_V1:Solving:LeftForeArm
							{
								OFFSET 27.916382 -0.000008 0.000000
								CHANNELS 6 Xposition Yposition Zposition Xrotation Yrotation Zrotation
								JOINT Junyuan_V1:Solving:LeftHand
								{
									OFFSET 21.757072 -0.000008 0.000000
									CHANNELS 6 Xposition Yposition Zposition Xrotation Yrotation Zrotation
									JOINT Junyuan_V1:Solving:LeftHandThumb1
									{
										OFFSET 3.656471 2.766285 -2.718907
										CHANNELS 6 Xposition Yposition Zposition Xrotation Yrotation Zrotation
										End Site
										{
											OFFSET 5.307442 0.000000 -5.356520
										}
									}
									JOINT Junyuan_V1:Solving:LeftHandMiddle1
									{
										OFFSET 9.750572 -0.000004 0.062504
										CHANNELS 6 Xposition Yposition Zposition Xrotation Yrotation Zrotation
										End Site
										{
											OFFSET 7.540642 -0.000004 0.000000
										}
									}
								}
							}
						}
					}
				}
			}
		}
	}
	JOINT Junyuan_V1:Solving:RightUpLeg
	{
		OFFSET -8.521003 0.000000 0.000000
		CHANNELS 6 Xposition Yposition Zposition Xrotation Yrotation Zrotation
		JOINT Junyuan_V1:Solving:RightLeg
		{
			OFFSET 0.000000 41.622898 -0.000006
			CHANNELS 6 Xposition Yposition Zposition Xrotation Yrotation Zrotation
			JOINT Junyuan_V1:Solving:RightFoot
			{
				OFFSET 0.000000 37.258389 -0.000006
				CHANNELS 6 Xposition Yposition Zposition Xrotation Yrotation Zrotation
				JOINT Junyuan_V1:Solving:RightForeFoot
				{
					OFFSET 0.000000 3.234154 -0.000000
					CHANNELS 6 Xposition Yposition Zposition Xrotation Yrotation Zrotation
					JOINT Junyuan_V1:Solving:RightToeBase
					{
						OFFSET 0.000000 0.000000 -12.665958
						CHANNELS 6 Xposition Yposition Zposition Xrotation Yrotation Zrotation
						JOINT Junyuan_V1:Solving:RightToeBaseEnd
						{
							OFFSET 0.000000 0.000000 -2.833065
							CHANNELS 6 Xposition Yposition Zposition Xrotation Yrotation Zrotation
							End Site
							{
								OFFSET 0.000000 -2.833061 0.000002
							}
						}
					}
				}
			}
		}
	}
	JOINT Junyuan_V1:Solving:LeftUpLeg
	{
		OFFSET 8.521003 0.000000 0.000000
		CHANNELS 6 Xposition Yposition Zposition Xrotation Yrotation Zrotation
		JOINT Junyuan_V1:Solving:LeftLeg
		{
			OFFSET 0.000000 41.622898 -0.000006
			CHANNELS 6 Xposition Yposition Zposition Xrotation Yrotation Zrotation
			JOINT Junyuan_V1:Solving:LeftFoot
			{
				OFFSET 0.000000 37.258389 -0.000006
				CHANNELS 6 Xposition Yposition Zposition Xrotation Yrotation Zrotation
				JOINT Junyuan_V1:Solving:LeftForeFoot
				{
					OFFSET 0.000000 3.234154 -0.000000
					CHANNELS 6 Xposition Yposition Zposition Xrotation Yrotation Zrotation
					JOINT Junyuan_V1:Solving:LeftToeBase
					{
						OFFSET 0.000000 0.000000 -12.665958
						CHANNELS 6 Xposition Yposition Zposition Xrotation Yrotation Zrotation
						JOINT Junyuan_V1:Solving:LeftToeBaseEnd
						{
							OFFSET 0.000000 0.000000 -4.326123
							CHANNELS 6 Xposition Yposition Zposition Xrotation Yrotation Zrotation
							End Site
							{
								OFFSET 0.000000 -4.326126 0.000000
							}
						}
					}
				}
			}
		}
	}
}
MOTION
Frames: 6
Frame Time: 0.041667
-8.128125 35.825584 -88.088074 89.042984 145.038807 2.049642 0.000004 -8.943191 2.778126 10.249315 0.310830 4.961469 -0.000006 -9.944796 1.753531 -0.981134 -0.212781 0.617561 -0.000005 -10.059812 0.880118 -5.804795 -2.476760 0.290458 -0.000000 -10.098243 0.000006 -4.245874 -0.256020 0.273629 0.000008 -12.983417 -1.298318 7.436481 7.110101 1.262055 -0.000004 -8.085081 -0.707361 -3.282641 23.086075 0.005405 0.000004 -7.992669 -1.409322 0.265103 3.579251 -4.922353 -0.000000 -9.728096 0.000007 -0.000000 0.000001 -0.000000 0.000002 -9.273880 -6.154333 -0.000010 20.185239 23.836880 -19.110817 -0.000012 0.000008 -52.144618 -16.897946 -106.983603 -27.916418 0.000007 0.000018 78.447810 -63.691712 77.155080 -21.757095 0.000010 -0.000001 -0.317185 -1.178817 -15.060861 -3.656463 2.766302 -2.718899 -0.000000 0.000002 0.000001 -9.750556 0.000038 0.062512 -0.000005 -0.000001 0.000001 0.000003 -9.273891 -6.154333 -0.000009 -15.958047 -9.052292 19.110826 -0.000026 0.000012 -2.677442 45.043141 85.954468 27.916388 0.000004 0.000012 17.500780 26.589742 -8.033330 21.757092 -0.000009 -0.000004 0.337369 -0.915595 20.228005 3.656474 2.766284 -2.718909 0.000004 -0.000012 0.000003 9.750593 -0.000004 0.062511 -0.000000 -0.000002 -0.000003 -8.520998 -0.000014 0.000006 -4.490981 25.287063 5.733691 -0.000000 41.622917 -0.000009 1.183899 -0.000000 0.000000 0.000001 37.258415 -0.000008 12.404112 0.709937 5.369578 -0.000000 3.234146 0.000001 -0.000001 -0.000001 0.000001 0.000001 0.000001 -12.665962 -2.532886 0.000000 0.000000 0.000000 -0.000015 -2.833062 -0.000000 0.000002 -0.000000 8.521003 -0.000010 0.000002 1.782710 -4.119235 -5.885815 0.000005 41.622902 -0.000005 -1.283409 -0.000009 -0.000000 0.000001 37.258400 0.000004 5.846848 6.936283 10.316163 -0.000001 3.234146 -0.000003 0.000001 0.000002 0.000000 0.000004 -0.000001 -12.665969 5.735681 0.000002 0.000000 -0.000002 -0.000007 -4.326127 0.000002 0.000001 -0.000002 
-8.140365 35.856674 -88.088394 89.071240 145.089365 2.009425 0.000000 -8.943190 2.778124 10.242039 0.308448 4.975330 -0.000001 -9.944812 1.753539 -0.984209 -0.210317 0.610083 0.000001 -10.059799 0.880115 -5.799155 -2.447222 0.285678 -0.000001 -10.098225 0.000006 -4.238085 -0.249486 0.253014 0.000001 -12.983455 -1.298344 7.419832 7.105328 1.250699 -0.000001 -8.085104 -0.707357 -3.278291 23.065207 -0.000896 -0.000001 -7.992673 -1.409326 0.259314 3.574246 -4.915892 -0.000001 -9.728081 0.000005 -0.000000 -0.000000 -0.000000 -0.000003 -9.273888 -6.154359 -0.000008 20.176051 23.813647 -19.110806 -0.000024 0.000008 -52.137426 -16.796414 -106.828421 -27.916420 -0.000005 0.000004 78.442721 -63.899924 77.171664 -21.757063 0.000022 0.000003 -0.302546 -1.124259 -15.062818 -3.656488 2.766291 -2.718913 0.000001 -0.000003 -0.000003 -9.750567 0.000031 0.062500 0.000001 0.000001 0.000005 0.000002 -9.273884 -6.154358 -0.000007 -15.943524 -9.063221 19.110815 -0.000019 0.000015 -2.714951 45.034477 86.011336 27.916388 0.000005 0.000004 17.503417 26.557437 -8.025666 21.757078 -0.000006 -0.000004 0.336017 -0.911799 20.230943 3.656466 2.766279 -2.718919 0.000000 -0.000010 0.000002 9.750560 -0.000005 0.062501 -0.000001 0.000001 0.000003 -8.521005 -0.000002 -0.000002 -4.489983 25.303885 5.785945 0.000001 41.622894 -0.000001 1.121238 -0.000000 0.000000 0.000001 37.258408 -0.000000 12.504235 0.602894 5.313941 0.000000 3.234154 0.000000 -0.000003 -0.000001 -0.000001 0.000002 -0.000010 -12.665961 -2.486580 -0.000000 -0.000003 -0.000002 -0.000007 -2.833066 0.000000 0.000001 0.000000 8.521003 -0.000005 0.000007 1.784635 -4.147929 -5.841873 0.000006 41.622906 -0.000003 -1.249101 0.000000 0.000002 0.000011 37.258392 0.000000 5.844988 6.924938 10.293774 0.000003 3.234146 -0.000004 0.000000 0.000005 0.000001 0.000007 -0.000004 -12.665964 5.734632 -0.000004 -0.000002 0.000001 -0.000007 -4.326116 0.000001 0.000006 -0.000002 
-8.150748 35.895332 -88.089874 89.088575 145.147448 1.969592 -0.000003 -8.943205 2.778120 10.232177 0.308697 4.993148 -0.000004 -9.944814 1.753541 -0.988384 -0.209060 0.604771 -0.000002 -10.059794 0.880119 -5.796020 -2.421643 0.284333 0.000003 -10.098236 0.000000 -4.230835 -0.242501 0.237102 0.000001 -12.983428 -1.298347 7.396542 7.097498 1.235207 -0.000002 -8.085099 -0.707356 -3.276360 23.036698 -0.007875 0.000002 -7.992697 -1.409326 0.263713 3.574341 -4.921913 -0.000002 -9.728111 0.000003 -0.000000 0.000001 0.000000 -0.000005 -9.273891 -6.154367 -0.000008 20.148647 23.777067 -19.110813 -0.000010 0.000007 -52.043538 -16.655865 -106.789031 -27.916382 -0.000002 0.000009 79.119299 -64.215328 77.949671 -21.757065 -0.000002 -0.000004 -0.031787 -0.118077 -15.068683 -3.656469 2.766284 -2.718913 0.000001 0.000005 -0.000006 -9.750573 0.000028 0.062512 0.000000 -0.000001 -0.000001 0.000001 -9.273895 -6.154365 -0.000003 -15.927182 -9.078412 19.110811 -0.000010 0.000005 -2.765052 45.032008 86.069133 27.916399 0.000009 -0.000003 17.470914 26.520048 -7.999679 21.757074 0.000005 -0.000002 0.340695 -0.923245 20.255942 3.656463 2.766279 -2.718909 -0.000003 -0.000003 0.000008 9.750573 -0.000008 0.062499 -0.000004 0.000003 0.000002 -8.521004 -0.000002 0.000006 -4.523569 25.388163 5.853216 0.000002 41.622894 -0.000001 1.048933 0.000000 0.000000 -0.000000 37.258400 -0.000007 12.708793 0.434600 5.394455 0.000000 3.234154 0.000003 -0.000000 -0.000000 -0.000002 0.000002 -0.000011 -12.665957 -2.751219 0.000003 0.000002 0.000000 -0.000023 -2.833063 -0.000001 0.000001 0.000002 8.521001 -0.000023 0.000003 1.776482 -4.194173 -5.789317 0.000001 41.622902 -0.000002 -1.221881 0.000005 -0.000001 -0.000000 37.258400 -0.000007 5.855575 6.919803 10.298975 -0.000004 3.234146 0.000001 0.000000 0.000005 -0.000002 -0.000007 -0.000010 -12.665956 5.737793 -0.000000 -0.000001 -0.000003 0.000001 -4.326128 0.000001 -0.000002 0.000002 
-8.161092 35.938377 -88.092232 89.101969 145.206898 1.938695 0.000006 -8.943192 2.778128 10.229194 0.306232 5.001789 0.000001 -9.944798 1.753542 -0.992010 -0.208102 0.600735 0.000001 -10.059787 0.880114 -5.797742 -2.396362 0.281023 0.000003 -10.098220 -0.000001 -4.230764 -0.236554 0.218861 -0.000005 -12.983456 -1.298357 7.382202 7.091339 1.210666 -0.000001 -8.085146 -0.707347 -3.298601 22.996065 0.009332 0.000009 -7.992722 -1.409325 0.259836 3.577493 -4.934580 0.000002 -9.728058 -0.000012 -0.000000 -0.000000 -0.000000 -0.000012 -9.273903 -6.154374 -0.000006 20.149342 23.764916 -19.110830 -0.000003 0.000007 -52.023556 -16.694693 -106.671292 -27.916399 -0.000025 -0.000017 79.739959 -64.985029 78.703976 -21.757065 0.000026 0.000009 0.366072 1.368606 -14.976580 -3.656480 2.766270 -2.718908 -0.000000 0.000003 -0.000001 -9.750569 0.000009 0.062504 0.000001 -0.000001 0.000003 -0.000008 -9.273899 -6.154375 -0.000005 -15.857216 -9.100327 19.110817 0.000021 0.000004 -2.776469 45.014351 86.124307 27.916372 -0.000003 -0.000006 17.396360 26.498253 -7.957818 21.757080 -0.000016 -0.000010 0.344787 -0.934911 20.244474 3.656458 2.766276 -2.718897 -0.000002 -0.000007 0.000003 9.750557 -0.000006 0.062510 -0.000002 -0.000003 -0.000000 -8.521000 0.000005 0.000007 -4.568783 25.477767 5.920742 0.000000 41.622932 -0.000004 0.999364 -0.000000 -0.000000 -0.000001 37.258392 -0.000008 12.862180 0.245928 5.388826 0.000003 3.234146 0.000000 -0.000002 0.000000 -0.000002 0.000002 -0.000008 -12.665961 -2.761022 -0.000001 0.000000 -0.000001 -0.000016 -2.833065 -0.000002 0.000002 -0.000000 8.521007 -0.000001 0.000007 1.764705 -4.197182 -5.741184 0.000012 41.622894 -0.000004 -1.192972 0.000000 -0.000001 0.000010 37.258385 -0.000009 5.861197 6.866093 10.269694 -0.000003 3.234146 0.000008 0.000001 0.000002 0.000000 -0.000007 -0.000002 -12.665958 5.758365 0.000006 -0.000001 -0.000002 -0.000007 -4.326134 0.000002 -0.000002 -0.000000 
-8.162373 35.986336 -88.099014 89.108547 145.276334 1.948729 -0.000004 -8.943162 2.778108 10.232999 0.302714 4.974038 -0.000003 -9.944826 1.753540 -0.996909 -0.208017 0.599221 0.000000 -10.059780 0.880126 -5.800670 -2.370253 0.283676 -0.000001 -10.098228 -0.000005 -4.237507 -0.231168 0.196750 -0.000003 -12.983446 -1.298327 7.382517 7.089495 1.188196 0.000005 -8.085099 -0.707360 -3.316522 22.960222 0.015619 0.000005 -7.992696 -1.409330 0.263468 3.581127 -4.947490 -0.000005 -9.728081 0.000004 0.000000 0.000000 0.000000 -0.000010 -9.273911 -6.154346 -0.000011 20.156110 23.739325 -19.110809 -0.000010 0.000009 -52.007922 -16.626834 -106.524518 -27.916367 -0.000006 -0.000004 79.632909 -65.816809 78.660283 -21.757084 0.000006 0.000002 0.526061 1.974459 -14.922223 -3.656459 2.766330 -2.718899 0.000003 0.000007 -0.000003 -9.750586 0.000016 0.062496 0.000005 -0.000000 0.000002 -0.000007 -9.273911 -6.154346 -0.000005 -15.849572 -9.094603 19.110813 -0.000036 0.000010 -2.821958 45.028179 86.151560 27.916395 0.000003 -0.000002 17.367300 26.432424 -7.925773 21.757063 -0.000018 -0.000003 0.334364 -0.902137 20.337392 3.656456 2.766279 -2.718912 0.000003 -0.000003 0.000010 9.750580 -0.000001 0.062499 0.000001 -0.000002 0.000000 -8.521004 0.000011 -0.000005 -4.606022 25.558033 5.921375 -0.000001 41.622906 -0.000002 0.933193 0.000001 -0.000001 0.000000 37.258408 -0.000009 13.058149 0.208700 5.278471 0.000001 3.234146 -0.000001 -0.000001 0.000000 -0.000001 0.000002 -0.000007 -12.665959 -2.733374 0.000003 -0.000001 -0.000000 -0.000007 -2.833066 0.000000 -0.000000 -0.000001 8.521001 0.000007 -0.000011 1.760617 -4.462346 -5.728720 0.000007 41.622902 -0.000006 -1.263976 -0.000004 -0.000001 0.000006 37.258392 0.000011 5.930146 7.064371 10.232471 -0.000003 3.234146 0.000007 0.000001 -0.000001 0.000002 0.000004 -0.000010 -12.665956 5.729783 0.000005 -0.000001 0.000009 -0.000008 -4.326122 -0.000002 -0.000006 0.000000 
-8.170822 36.040726 -88.105377 89.114216 145.349158 1.932413 -0.000001 -8.943184 2.778123 10.231014 0.298449 4.978616 0.000001 -9.944818 1.753540 -0.999871 -0.205792 0.590668 -0.000001 -10.059820 0.880123 -5.803374 -2.330908 0.276306 0.000002 -10.098233 0.000008 -4.243127 -0.223655 0.176543 -0.000014 -12.983473 -1.298334 7.363770 7.078613 1.190110 0.000004 -8.085106 -0.707354 -3.289390 22.920105 -0.000525 0.000002 -7.992710 -1.409334 0.272196 3.575308 -4.944152 0.000002 -9.728073 0.000012 -0.000000 0.000001 -0.000000 -0.000014 -9.273899 -6.154346 -0.000013 20.197146 23.726202 -19.110807 0.000005 0.000010 -52.032904 -16.435704 -106.440732 -27.916391 -0.000009 0.000015 79.231916 -66.477890 78.281952 -21.757069 0.000012 -0.000003 0.580457 2.150452 -15.109437 -3.656453 2.766282 -2.718894 0.000002 0.000009 -0.000005 -9.750576 -0.000030 0.062504 -0.000001 0.000003 0.000004 -0.000009 -9.273895 -6.154348 -0.000009 -15.792475 -9.105086 19.110821 -0.000002 0.000010 -2.835258 45.010889 86.196407 27.916397 -0.000009 0.000007 17.351086 26.385437 -7.905104 21.757065 -0.000015 0.000000 0.326590 -0.879390 20.375013 3.656444 2.766289 -2.718903 0.000001 -0.000003 0.000003 9.750563 0.000003 0.062505 0.000001 0.000005 -0.000003 -8.521003 0.000013 0.000003 -4.664130 25.642058 5.976992 0.000001 41.622898 -0.000006 0.888034 -0.000002 0.000000 -0.000000 37.258373 -0.000005 13.183789 0.041823 5.160422 -0.000002 3.234146 -0.000000 -0.000002 -0.000000 -0.000002 0.000000 -0.000004 -12.665961 -2.495601 -0.000001 -0.000001 -0.000002 -0.000015 -2.833064 0.000001 -0.000001 0.000001 8.521006 0.000011 0.000002 1.738281 -4.554527 -5.685486 0.000001 41.622883 -0.000008 -1.258016 -0.000005 0.000000 0.000000 37.258396 -0.000000 5.966982 7.087968 10.200362 -0.000007 3.234146 -0.000001 -0.000000 0.000003 0.000001 -0.000002 -0.000013 -12.665959 5.718733 0.000006 -0.000001 0.000003 -0.000007 -4.326130 0.000002 -0.000006 0.000001 
